<mxfile host="app.diagrams.net" modified="2023-08-11T13:52:08.743Z" agent="Mozilla/5.0 (Windows NT 10.0; Win64; x64) AppleWebKit/537.36 (KHTML, like Gecko) Chrome/115.0.0.0 Safari/537.36" etag="Q5t9FpjVT8qWNO0Rco3Z" version="21.6.8" type="device">
  <diagram name="PÃ¡gina-1" id="uqMVTQqqdKqrkVCiUhlu">
    <mxGraphModel dx="1050" dy="574" grid="1" gridSize="10" guides="1" tooltips="1" connect="1" arrows="1" fold="1" page="1" pageScale="1" pageWidth="827" pageHeight="1169" math="0" shadow="0">
      <root>
        <mxCell id="0" />
        <mxCell id="1" parent="0" />
        <mxCell id="TOSoASLh-kDgEDRarQP9-1" value="TiposDeUsuarios" style="rounded=0;whiteSpace=wrap;html=1;" vertex="1" parent="1">
          <mxGeometry x="294" y="370" width="120" height="60" as="geometry" />
        </mxCell>
        <mxCell id="TOSoASLh-kDgEDRarQP9-25" style="edgeStyle=orthogonalEdgeStyle;rounded=0;orthogonalLoop=1;jettySize=auto;html=1;entryX=0.5;entryY=0;entryDx=0;entryDy=0;endArrow=none;endFill=0;" edge="1" parent="1" source="TOSoASLh-kDgEDRarQP9-2" target="TOSoASLh-kDgEDRarQP9-23">
          <mxGeometry relative="1" as="geometry" />
        </mxCell>
        <mxCell id="TOSoASLh-kDgEDRarQP9-2" value="TiposDeConsulta" style="rounded=0;whiteSpace=wrap;html=1;" vertex="1" parent="1">
          <mxGeometry x="580" y="10" width="120" height="60" as="geometry" />
        </mxCell>
        <mxCell id="TOSoASLh-kDgEDRarQP9-18" style="edgeStyle=orthogonalEdgeStyle;rounded=0;orthogonalLoop=1;jettySize=auto;html=1;endArrow=none;endFill=0;" edge="1" parent="1" source="TOSoASLh-kDgEDRarQP9-3" target="TOSoASLh-kDgEDRarQP9-13">
          <mxGeometry relative="1" as="geometry" />
        </mxCell>
        <mxCell id="TOSoASLh-kDgEDRarQP9-3" value="Usuario" style="rounded=0;whiteSpace=wrap;html=1;" vertex="1" parent="1">
          <mxGeometry x="294" y="180" width="120" height="60" as="geometry" />
        </mxCell>
        <mxCell id="TOSoASLh-kDgEDRarQP9-4" value="Consulta" style="rounded=0;whiteSpace=wrap;html=1;" vertex="1" parent="1">
          <mxGeometry x="580" y="180" width="120" height="60" as="geometry" />
        </mxCell>
        <mxCell id="TOSoASLh-kDgEDRarQP9-5" value="Clinica" style="rounded=0;whiteSpace=wrap;html=1;" vertex="1" parent="1">
          <mxGeometry x="30" y="180" width="120" height="60" as="geometry" />
        </mxCell>
        <mxCell id="TOSoASLh-kDgEDRarQP9-6" value="Prontuario" style="rounded=0;whiteSpace=wrap;html=1;" vertex="1" parent="1">
          <mxGeometry x="294" y="10" width="120" height="60" as="geometry" />
        </mxCell>
        <mxCell id="TOSoASLh-kDgEDRarQP9-14" style="edgeStyle=orthogonalEdgeStyle;rounded=0;orthogonalLoop=1;jettySize=auto;html=1;entryX=1;entryY=0.5;entryDx=0;entryDy=0;endArrow=none;endFill=0;" edge="1" parent="1" source="TOSoASLh-kDgEDRarQP9-10" target="TOSoASLh-kDgEDRarQP9-5">
          <mxGeometry relative="1" as="geometry" />
        </mxCell>
        <mxCell id="TOSoASLh-kDgEDRarQP9-15" style="edgeStyle=orthogonalEdgeStyle;rounded=0;orthogonalLoop=1;jettySize=auto;html=1;exitX=1;exitY=0.5;exitDx=0;exitDy=0;entryX=0;entryY=0.5;entryDx=0;entryDy=0;endArrow=none;endFill=0;" edge="1" parent="1" source="TOSoASLh-kDgEDRarQP9-10" target="TOSoASLh-kDgEDRarQP9-3">
          <mxGeometry relative="1" as="geometry" />
        </mxCell>
        <mxCell id="TOSoASLh-kDgEDRarQP9-10" value="Possui" style="rhombus;whiteSpace=wrap;html=1;" vertex="1" parent="1">
          <mxGeometry x="190" y="180" width="60" height="60" as="geometry" />
        </mxCell>
        <mxCell id="TOSoASLh-kDgEDRarQP9-16" style="edgeStyle=orthogonalEdgeStyle;rounded=0;orthogonalLoop=1;jettySize=auto;html=1;entryX=0.5;entryY=0;entryDx=0;entryDy=0;endArrow=none;endFill=0;" edge="1" parent="1" source="TOSoASLh-kDgEDRarQP9-11" target="TOSoASLh-kDgEDRarQP9-3">
          <mxGeometry relative="1" as="geometry" />
        </mxCell>
        <mxCell id="TOSoASLh-kDgEDRarQP9-17" style="edgeStyle=orthogonalEdgeStyle;rounded=0;orthogonalLoop=1;jettySize=auto;html=1;exitX=0.5;exitY=0;exitDx=0;exitDy=0;entryX=0.5;entryY=1;entryDx=0;entryDy=0;endArrow=none;endFill=0;" edge="1" parent="1" source="TOSoASLh-kDgEDRarQP9-11" target="TOSoASLh-kDgEDRarQP9-6">
          <mxGeometry relative="1" as="geometry" />
        </mxCell>
        <mxCell id="TOSoASLh-kDgEDRarQP9-11" value="Possui" style="rhombus;whiteSpace=wrap;html=1;" vertex="1" parent="1">
          <mxGeometry x="324" y="90" width="60" height="60" as="geometry" />
        </mxCell>
        <mxCell id="TOSoASLh-kDgEDRarQP9-21" style="edgeStyle=orthogonalEdgeStyle;rounded=0;orthogonalLoop=1;jettySize=auto;html=1;entryX=0.5;entryY=1;entryDx=0;entryDy=0;endArrow=none;endFill=0;" edge="1" parent="1" source="TOSoASLh-kDgEDRarQP9-12" target="TOSoASLh-kDgEDRarQP9-3">
          <mxGeometry relative="1" as="geometry" />
        </mxCell>
        <mxCell id="TOSoASLh-kDgEDRarQP9-22" style="edgeStyle=orthogonalEdgeStyle;rounded=0;orthogonalLoop=1;jettySize=auto;html=1;entryX=0.5;entryY=0;entryDx=0;entryDy=0;endArrow=none;endFill=0;" edge="1" parent="1" source="TOSoASLh-kDgEDRarQP9-12" target="TOSoASLh-kDgEDRarQP9-1">
          <mxGeometry relative="1" as="geometry" />
        </mxCell>
        <mxCell id="TOSoASLh-kDgEDRarQP9-12" value="Possui" style="rhombus;whiteSpace=wrap;html=1;" vertex="1" parent="1">
          <mxGeometry x="324" y="270" width="60" height="60" as="geometry" />
        </mxCell>
        <mxCell id="TOSoASLh-kDgEDRarQP9-19" style="edgeStyle=orthogonalEdgeStyle;rounded=0;orthogonalLoop=1;jettySize=auto;html=1;entryX=0;entryY=0.5;entryDx=0;entryDy=0;endArrow=none;endFill=0;" edge="1" parent="1" source="TOSoASLh-kDgEDRarQP9-13" target="TOSoASLh-kDgEDRarQP9-4">
          <mxGeometry relative="1" as="geometry" />
        </mxCell>
        <mxCell id="TOSoASLh-kDgEDRarQP9-13" value="Possui" style="rhombus;whiteSpace=wrap;html=1;" vertex="1" parent="1">
          <mxGeometry x="470" y="180" width="60" height="60" as="geometry" />
        </mxCell>
        <mxCell id="TOSoASLh-kDgEDRarQP9-24" style="edgeStyle=orthogonalEdgeStyle;rounded=0;orthogonalLoop=1;jettySize=auto;html=1;entryX=0.5;entryY=0;entryDx=0;entryDy=0;endArrow=none;endFill=0;" edge="1" parent="1" source="TOSoASLh-kDgEDRarQP9-23" target="TOSoASLh-kDgEDRarQP9-4">
          <mxGeometry relative="1" as="geometry" />
        </mxCell>
        <mxCell id="TOSoASLh-kDgEDRarQP9-23" value="Possui" style="rhombus;whiteSpace=wrap;html=1;" vertex="1" parent="1">
          <mxGeometry x="610" y="90" width="60" height="60" as="geometry" />
        </mxCell>
      </root>
    </mxGraphModel>
  </diagram>
</mxfile>
